<?xml version="1.0" encoding="iso-8859-1"?>
<!-- Generator: Adobe Illustrator 16.0.0, SVG Export Plug-In . SVG Version: 6.00 Build 0)  -->
<!DOCTYPE svg PUBLIC "-//W3C//DTD SVG 1.1//EN" "http://www.w3.org/Graphics/SVG/1.1/DTD/svg11.dtd">
<svg version="1.1" id="Capa_1" xmlns="http://www.w3.org/2000/svg" xmlns:xlink="http://www.w3.org/1999/xlink" x="0px" y="0px"
	 width="977.6px" height="977.6px" viewBox="0 0 977.6 977.6" style="enable-background:new 0 0 977.6 977.6;" xml:space="preserve"
	>
<g>
	<path d="M10.7,917.6c0,33.101,26.9,60,60,60h150.6c33.1,0,60-26.899,60-60V587.3c0-33.1-26.9-60-60-60h-111V307.6
		c0-114.5,93.1-207.6,207.6-207.6h342c114.5,0,207.602,93.1,207.602,207.6v219.7H755.7c-33.1,0-60,26.9-60,60v330.3
		c0,33.101,26.9,60,60,60h151.6c33.1,0,60-26.899,60-60V605h0.1V307.6c0-41.5-8.1-81.8-24.199-119.7
		c-15.5-36.6-37.699-69.5-65.9-97.8c-28.199-28.2-61.1-50.4-97.799-65.9C741.601,8.2,701.3,0,659.8,0h-342
		C276.3,0,236,8.1,198.1,24.2c-36.6,15.5-69.5,37.7-97.8,65.9c-28.2,28.2-50.4,61.1-65.9,97.8c-16.1,38-24.2,78.2-24.2,119.7V605
		h0.5V917.6z"/>
</g>
<g>
</g>
<g>
</g>
<g>
</g>
<g>
</g>
<g>
</g>
<g>
</g>
<g>
</g>
<g>
</g>
<g>
</g>
<g>
</g>
<g>
</g>
<g>
</g>
<g>
</g>
<g>
</g>
<g>
</g>
</svg>
