<?xml version="1.0" encoding="iso-8859-1"?>
<!-- Generator: Adobe Illustrator 19.0.0, SVG Export Plug-In . SVG Version: 6.00 Build 0)  -->
<svg version="1.1" id="Layer_1" xmlns="http://www.w3.org/2000/svg" xmlns:xlink="http://www.w3.org/1999/xlink" x="0px" y="0px"
	 viewBox="0 0 502 502" style="enable-background:new 0 0 502 502;" xml:space="preserve">
<g>
	<g>
		<g>
			<path d="M43,345.5h35c5.522,0,10-4.477,10-10v-35c0-5.523-4.478-10-10-10H43c-5.522,0-10,4.477-10,10v35
				C33,341.023,37.478,345.5,43,345.5z M53,310.5h15v15H53V310.5z"/>
			<path d="M110.625,345.5h35c5.522,0,10-4.477,10-10v-35c0-5.523-4.478-10-10-10h-35c-5.522,0-10,4.477-10,10v35
				C100.625,341.023,105.103,345.5,110.625,345.5z M120.625,310.5h15v15h-15V310.5z"/>
			<path d="M178.25,345.5h35c5.522,0,10-4.477,10-10v-35c0-5.523-4.478-10-10-10h-35c-5.522,0-10,4.477-10,10v35
				C168.25,341.023,172.728,345.5,178.25,345.5z M188.25,310.5h15v15h-15V310.5z"/>
			<path d="M110.625,408.5H213.25c5.522,0,10-4.477,10-10v-35c0-5.523-4.478-10-10-10H110.625c-5.522,0-10,4.477-10,10v35
				C100.625,404.023,105.103,408.5,110.625,408.5z M120.625,373.5h82.625v15h-82.625V373.5z"/>
			<path d="M245.25,345.5h35c5.522,0,10-4.477,10-10v-35c0-5.523-4.478-10-10-10h-35c-5.522,0-10,4.477-10,10v35
				C235.25,341.023,239.728,345.5,245.25,345.5z M255.25,310.5h15v15h-15V310.5z"/>
			<path d="M355.375,345.5h35c5.522,0,10-4.477,10-10v-35c0-5.523-4.478-10-10-10h-35c-5.522,0-10,4.477-10,10v35
				C345.375,341.023,349.853,345.5,355.375,345.5z M365.375,310.5h15v15h-15V310.5z"/>
			<path d="M423,345.5h35c5.522,0,10-4.477,10-10v-35c0-5.523-4.478-10-10-10h-35c-5.522,0-10,4.477-10,10v35
				C413,341.023,417.478,345.5,423,345.5z M433,310.5h15v15h-15V310.5z"/>
			<path d="M43,408.5h35c5.522,0,10-4.477,10-10v-35c0-5.523-4.478-10-10-10H43c-5.522,0-10,4.477-10,10v35
				C33,404.023,37.478,408.5,43,408.5z M53,373.5h15v15H53V373.5z"/>
			<path d="M245.25,408.5h35c5.522,0,10-4.477,10-10v-35c0-5.523-4.478-10-10-10h-35c-5.522,0-10,4.477-10,10v35
				C235.25,404.023,239.728,408.5,245.25,408.5z M255.25,373.5h15v15h-15V373.5z"/>
			<path d="M355.375,408.5h35c5.522,0,10-4.477,10-10v-35c0-5.523-4.478-10-10-10h-35c-5.522,0-10,4.477-10,10v35
				C345.375,404.023,349.853,408.5,355.375,408.5z M365.375,373.5h15v15h-15V373.5z"/>
			<path d="M423,408.5h35c5.522,0,10-4.477,10-10v-35c0-5.523-4.478-10-10-10h-35c-5.522,0-10,4.477-10,10v35
				C413,404.023,417.478,408.5,423,408.5z M433,373.5h15v15h-15V373.5z"/>
			<path d="M43,282.5h35c5.522,0,10-4.477,10-10v-35c0-5.523-4.478-10-10-10H43c-5.522,0-10,4.477-10,10v35
				C33,278.023,37.478,282.5,43,282.5z M53,247.5h15v15H53V247.5z"/>
			<path d="M110.625,282.5h35c5.522,0,10-4.477,10-10v-35c0-5.523-4.478-10-10-10h-35c-5.522,0-10,4.477-10,10v35
				C100.625,278.023,105.103,282.5,110.625,282.5z M120.625,247.5h15v15h-15V247.5z"/>
			<path d="M178.25,282.5h35c5.522,0,10-4.477,10-10v-35c0-5.523-4.478-10-10-10h-35c-5.522,0-10,4.477-10,10v35
				C168.25,278.023,172.728,282.5,178.25,282.5z M188.25,247.5h15v15h-15V247.5z"/>
			<path d="M245.25,282.5h35c5.522,0,10-4.477,10-10v-35c0-5.523-4.478-10-10-10h-35c-5.522,0-10,4.477-10,10v35
				C235.25,278.023,239.728,282.5,245.25,282.5z M255.25,247.5h15v15h-15V247.5z"/>
			<path d="M355.375,282.5h35c5.522,0,10-4.477,10-10v-35c0-5.523-4.478-10-10-10h-35c-5.522,0-10,4.477-10,10v35
				C345.375,278.023,349.853,282.5,355.375,282.5z M365.375,247.5h15v15h-15V247.5z"/>
			<path d="M423,282.5h35c5.522,0,10-4.477,10-10v-35c0-5.523-4.478-10-10-10h-35c-5.522,0-10,4.477-10,10v35
				C413,278.023,417.478,282.5,423,282.5z M433,247.5h15v15h-15V247.5z"/>
			<path d="M214,96.5c5.522,0,10-4.477,10-10v-13c0-5.523-4.478-10-10-10c-5.522,0-10,4.477-10,10v13
				C204,92.023,208.478,96.5,214,96.5z"/>
			<path d="M492,197.5H290v-23c0-23.71-19.29-43-43-43c-10.072,0-18.885-6.442-21.928-16.03c-1.671-5.264-7.289-8.177-12.557-6.507
				c-5.264,1.671-8.177,7.292-6.506,12.557c5.69,17.932,22.163,29.98,40.99,29.98c12.683,0,23,10.318,23,23v23H10
				c-5.522,0-10,4.477-10,10v221c0,5.523,4.478,10,10,10h482c5.522,0,10-4.477,10-10v-221C502,201.977,497.522,197.5,492,197.5z
				 M482,418.5H20v-201h462V418.5z"/>
		</g>
	</g>
</g>
<g>
</g>
<g>
</g>
<g>
</g>
<g>
</g>
<g>
</g>
<g>
</g>
<g>
</g>
<g>
</g>
<g>
</g>
<g>
</g>
<g>
</g>
<g>
</g>
<g>
</g>
<g>
</g>
<g>
</g>
</svg>
