<?xml version="1.0" encoding="iso-8859-1"?>
<!-- Generator: Adobe Illustrator 16.0.0, SVG Export Plug-In . SVG Version: 6.00 Build 0)  -->
<!DOCTYPE svg PUBLIC "-//W3C//DTD SVG 1.1//EN" "http://www.w3.org/Graphics/SVG/1.1/DTD/svg11.dtd">
<svg version="1.1" id="Capa_1" xmlns="http://www.w3.org/2000/svg" xmlns:xlink="http://www.w3.org/1999/xlink" x="0px" y="0px"
	 width="44.783px" height="44.782px" viewBox="0 0 44.783 44.782" style="enable-background:new 0 0 44.783 44.782;"
	 xml:space="preserve">
<g>
	<g>
		<path d="M28.458,0H16.321c-6.004,0-10.89,4.885-10.89,10.889v3.832h13.46V7V6.522c0-1.299,0.715-2.418,1.765-3.021
			c0.513-0.297,1.101-0.479,1.735-0.479s1.224,0.182,1.733,0.479c1.052,0.603,1.767,1.723,1.767,3.021v0.479v7.721H39.35V10.89
			C39.35,4.885,34.465,0,28.458,0z"/>
		<path d="M5.432,21.721v12.171c0,6.004,4.885,10.89,10.89,10.89h12.14c6.004,0,10.889-4.886,10.889-10.89V21.721H5.432z"/>
	</g>
</g>
<g>
</g>
<g>
</g>
<g>
</g>
<g>
</g>
<g>
</g>
<g>
</g>
<g>
</g>
<g>
</g>
<g>
</g>
<g>
</g>
<g>
</g>
<g>
</g>
<g>
</g>
<g>
</g>
<g>
</g>
</svg>
